<svg id="Capa_1" enable-background="new 0 0 512 512" height="512" viewBox="0 0 512 512" width="512" xmlns="http://www.w3.org/2000/svg" xmlns:xlink="http://www.w3.org/1999/xlink"><linearGradient id="SVGID_1_" gradientUnits="userSpaceOnUse" x1="256" x2="256" y1="512" y2="0"><stop offset="0" stop-color="#ffbef9"/><stop offset="1" stop-color="#fff1ff"/></linearGradient><linearGradient id="SVGID_2_" gradientUnits="userSpaceOnUse" x1="256" x2="256" y1="362.5" y2="149.5"><stop offset="0" stop-color="#ff81ff"/><stop offset="1" stop-color="#a93aff"/></linearGradient><g><g><circle cx="256" cy="256" fill="url(#SVGID_1_)" r="256"/></g><g><g><path d="m105 353.625c0 4.906 3.973 8.875 8.882 8.875h284.235c4.91 0 8.882-3.969 8.882-8.875v-150.875h-301.999zm133.235-26.625h-26.647c-4.91 0-8.882-3.969-8.882-8.875s3.973-8.875 8.882-8.875h26.647c4.91 0 8.882 3.969 8.882 8.875s-3.972 8.875-8.882 8.875zm97.706-17.75h26.647c4.91 0 8.882 3.969 8.882 8.875s-3.972 8.875-8.882 8.875h-26.647c-4.91 0-8.882-3.969-8.882-8.875s3.973-8.875 8.882-8.875zm-62.176 0h26.647c4.91 0 8.882 3.969 8.882 8.875s-3.973 8.875-8.882 8.875h-26.647c-4.91 0-8.882-3.969-8.882-8.875s3.972-8.875 8.882-8.875zm-133.236-62.125c0-14.682 11.953-26.625 26.647-26.625h53.294c14.694 0 26.647 11.943 26.647 26.625v17.75c0 14.682-11.953 26.625-26.647 26.625h-53.294c-14.694 0-26.647-11.943-26.647-26.625zm8.883 62.125h26.647c4.91 0 8.882 3.969 8.882 8.875s-3.973 8.875-8.882 8.875h-26.647c-4.91 0-8.882-3.969-8.882-8.875s3.972-8.875 8.882-8.875zm17.764-35.5h53.294c4.892 0 8.882-3.978 8.882-8.875v-17.75c0-4.897-3.99-8.875-8.882-8.875h-53.294c-4.892 0-8.882 3.978-8.882 8.875v17.75c0 4.897 3.99 8.875 8.882 8.875zm230.942-124.25h-284.236c-4.91 0-8.882 3.969-8.882 8.875v26.625h302v-26.625c0-4.906-3.973-8.875-8.882-8.875z" fill="url(#SVGID_2_)"/></g></g></g></svg>