<svg id="Capa_1" enable-background="new 0 0 512 512" height="512" viewBox="0 0 512 512" width="512" xmlns="http://www.w3.org/2000/svg" xmlns:xlink="http://www.w3.org/1999/xlink"><linearGradient id="SVGID_1_" gradientUnits="userSpaceOnUse" x1="256" x2="256" y1="512" y2="0"><stop offset="0" stop-color="#addcff"/><stop offset=".5028" stop-color="#eaf6ff"/><stop offset="1" stop-color="#eaf6ff"/></linearGradient><linearGradient id="SVGID_2_" gradientUnits="userSpaceOnUse" x1="256" x2="256" y1="79.134" y2="356.632"><stop offset="0" stop-color="#5558ff"/><stop offset="1" stop-color="#00c0ff"/></linearGradient><g><path d="m256 512c-141.385 0-256-114.615-256-256 0-141.385 114.615-256 256-256 141.385 0 256 114.615 256 256 0 141.385-114.615 256-256 256z" fill="url(#SVGID_1_)"/><g fill="url(#SVGID_2_)"><path d="m264.994 247.006h-17.988c-4.971 0-8.994 4.023-8.994 8.994v80.947h-17.988c-3.408 0-6.517 1.924-8.046 4.971-1.52 3.048-1.195 6.693.852 9.416l35.977 54.564c1.695 2.266 4.365 3.601 7.194 3.601 2.828 0 5.498-1.335 7.194-3.601l35.977-54.564c2.047-2.723 2.372-6.368.852-9.416-1.528-3.048-4.638-4.971-8.046-4.971h-17.988v-80.947c-.002-4.971-4.024-8.994-8.996-8.994z"/><path d="m372.478 195.966c.703-4.146 1.045-8.054 1.045-11.919 0-44.637-36.91-81.547-81.547-81.547-28.511 0-54.87 15.292-69.38 39.604-6.71-2.407-13.597-3.628-20.562-3.628-32.419 0-59.799 25.237-63.119 57.498-21.466 7.387-36.416 27.834-36.416 51.031 0 29.758 24.207 53.965 53.965 53.965h63.559v-44.97c0-14.879 12.103-26.982 26.982-26.982h17.988c14.879 0 26.982 12.103 26.982 26.982v44.971h62.959c29.758 0 54.564-24.207 54.564-53.965.002-23.364-15.369-43.847-37.02-51.04z"/></g></g></svg>