<svg id="Capa_1" enable-background="new 0 0 512 512" height="512" viewBox="0 0 512 512" width="512" xmlns="http://www.w3.org/2000/svg" xmlns:xlink="http://www.w3.org/1999/xlink"><linearGradient id="SVGID_1_" gradientUnits="userSpaceOnUse" x1="256" x2="256" y1="512" y2="0"><stop offset="0" stop-color="#addcff"/><stop offset=".5028" stop-color="#eaf6ff"/><stop offset="1" stop-color="#eaf6ff"/></linearGradient><linearGradient id="lg1"><stop offset="0" stop-color="#5558ff"/><stop offset="1" stop-color="#00c0ff"/></linearGradient><linearGradient id="SVGID_2_" gradientUnits="userSpaceOnUse" x1="175.053" x2="175.053" xlink:href="#lg1" y1="131.379" y2="372.703"/><linearGradient id="SVGID_3_" gradientUnits="userSpaceOnUse" x1="255.796" x2="255.796" xlink:href="#lg1" y1="131.379" y2="372.703"/><linearGradient id="SVGID_4_" gradientUnits="userSpaceOnUse" x1="256" x2="256" xlink:href="#lg1" y1="131.379" y2="372.703"/><g><circle cx="256" cy="256" fill="url(#SVGID_1_)" r="256"/><g><g><circle cx="175.053" cy="211.029" fill="url(#SVGID_2_)" r="17.988"/><path d="m291.467 251.239-56.09 56.09c-3.513 3.513-9.205 3.513-12.718 0l-20.623-20.623-86.817 86.217h281.156z" fill="url(#SVGID_3_)"/><path d="m400.506 139.076h-289.012c-4.971 0-8.994 4.023-8.994 8.994v212.135l93.176-92.576c3.513-3.513 9.205-3.513 12.718 0l20.623 20.623 56.6-56.6c1.757-1.774 4.102-2.828 6.702-2.626 2.503.097 4.857 1.23 6.482 3.136l110.699 128.449v-212.541c0-4.971-4.023-8.994-8.994-8.994zm-225.453 107.93c-19.842 0-35.977-16.135-35.977-35.977s16.135-35.977 35.977-35.977 35.977 16.135 35.977 35.977-16.136 35.977-35.977 35.977z" fill="url(#SVGID_4_)"/></g></g></g></svg>