<svg id="Capa_1" enable-background="new 0 0 512 512" height="512" viewBox="0 0 512 512" width="512" xmlns="http://www.w3.org/2000/svg" xmlns:xlink="http://www.w3.org/1999/xlink"><linearGradient id="SVGID_1_" gradientUnits="userSpaceOnUse" x1="256" x2="256" y1="512" y2="0"><stop offset="0" stop-color="#c3ffe8"/><stop offset=".9973" stop-color="#f0fff4"/></linearGradient><linearGradient id="SVGID_2_" gradientUnits="userSpaceOnUse" x1="256" x2="256" y1="407" y2="105"><stop offset="0" stop-color="#9cffac"/><stop offset="1" stop-color="#00b59c"/></linearGradient><g><g><circle cx="256" cy="256" fill="url(#SVGID_1_)" r="256"/></g><g><g><path d="m256 247.118c24.444 0 44.318-19.925 44.318-44.412s-19.874-44.412-44.318-44.412-44.318 19.925-44.318 44.412 19.874 44.412 44.318 44.412zm-17.727-53.295h8.864v-8.882c0-4.91 3.965-8.882 8.864-8.882s8.864 3.973 8.864 8.882v8.882h8.864c4.899 0 8.864 3.973 8.864 8.882 0 4.91-3.964 8.882-8.864 8.882h-8.864v8.883c0 4.909-3.965 8.882-8.864 8.882s-8.864-3.973-8.864-8.882v-8.883h-8.864c-4.899 0-8.864-3.973-8.864-8.882s3.965-8.882 8.864-8.882zm-14.092 101.237 23.406 70.339c1.212 3.626 4.605 6.072 8.414 6.072s7.202-2.446 8.414-6.072l23.406-70.339c38.9-13.54 65.681-50.857 65.681-92.354-.002-53.875-43.749-97.706-97.502-97.706s-97.5 43.831-97.5 97.706c0 41.497 26.781 78.814 65.681 92.354zm31.819-154.531c34.208 0 62.045 27.896 62.045 62.177s-27.837 62.177-62.045 62.177-62.045-27.896-62.045-62.177c0-34.28 27.837-62.177 62.045-62.177zm41.452 181.734-16.229 48.756c-3.635 10.903-13.78 18.216-25.223 18.216s-21.588-7.313-25.223-18.198l-16.231-48.774c-30.383 6.209-56.046 19.65-56.046 40.325 0 28.85 50.239 44.412 97.5 44.412s97.5-15.562 97.5-44.412c0-20.675-25.664-34.115-56.048-40.325z" fill="url(#SVGID_2_)"/></g></g></g></svg>