<svg id="Capa_1" enable-background="new 0 0 512 512" height="512" viewBox="0 0 512 512" width="512" xmlns="http://www.w3.org/2000/svg" xmlns:xlink="http://www.w3.org/1999/xlink"><linearGradient id="SVGID_1_" gradientUnits="userSpaceOnUse" x1="256" x2="256" y1="512" y2="0"><stop offset="0" stop-color="#c3ffe8"/><stop offset=".9973" stop-color="#f0fff4"/></linearGradient><linearGradient id="SVGID_2_" gradientUnits="userSpaceOnUse" x1="255.997" x2="255.997" y1="353" y2="159"><stop offset="0" stop-color="#9cffac"/><stop offset="1" stop-color="#00b59c"/></linearGradient><g><g><circle cx="256" cy="256" fill="url(#SVGID_1_)" r="256"/></g><g><g><path d="m255.997 264.818c9.648 0 18.996-3.458 26.322-9.737l112.095-96.081h-276.834l112.094 96.081c7.326 6.279 16.675 9.737 26.323 9.737zm37.8 3.653c-10.52 9.017-23.945 13.983-37.8 13.983s-27.28-4.966-37.8-13.983l-112.697-96.597v172.308c0 4.87 3.948 8.818 8.818 8.818h283.358c4.87 0 8.818-3.948 8.818-8.818v-172.308z" fill="url(#SVGID_2_)"/></g></g></g></svg>