<svg id="Capa_1" enable-background="new 0 0 512 512" height="512" viewBox="0 0 512 512" width="512" xmlns="http://www.w3.org/2000/svg" xmlns:xlink="http://www.w3.org/1999/xlink"><linearGradient id="SVGID_1_" gradientUnits="userSpaceOnUse" x1="256" x2="256" y1="512" y2="0"><stop offset="0" stop-color="#ffc8d1"/><stop offset="1" stop-color="#fff6f7"/></linearGradient><linearGradient id="SVGID_2_" gradientUnits="userSpaceOnUse" x1="256" x2="256" y1="386.569" y2="126.25"><stop offset="0" stop-color="#ffa68d"/><stop offset="1" stop-color="#fd3a84"/></linearGradient><g><circle cx="256" cy="256" fill="url(#SVGID_1_)" r="256"/><g fill="url(#SVGID_2_)"><path d="m256 202.035c-34.712 0-62.959 28.247-62.959 62.959s28.247 62.959 62.959 62.959 62.959-28.247 62.959-62.959-28.247-62.959-62.959-62.959zm0 107.93c-24.795 0-44.971-20.175-44.971-44.971s20.175-44.971 44.971-44.971 44.971 20.175 44.971 44.971-20.176 44.971-44.971 44.971z"/><circle cx="256" cy="264.994" r="26.982"/><path d="m400.506 166.059h-66.993l-15.503-31.005c-1.528-3.048-4.638-4.971-8.046-4.971h-107.93c-3.408 0-6.517 1.924-8.046 4.971l-15.503 31.005h-21.423v-8.994c0-4.971-4.023-8.994-8.994-8.994s-8.994 4.023-8.994 8.994v8.994h-27.582c-4.971 0-8.994 4.023-8.994 8.994v197.871c0 4.971 4.023 8.994 8.994 8.994h289.012c4.971 0 8.994-4.023 8.994-8.994v-197.871c.002-4.972-4.021-8.994-8.992-8.994zm-144.506 179.882c-44.637 0-80.947-36.31-80.947-80.947s36.31-80.947 80.947-80.947 80.947 36.31 80.947 80.947-36.31 80.947-80.947 80.947zm107.93-125.918c-4.967 0-8.994-4.027-8.994-8.994s4.027-8.994 8.994-8.994 8.994 4.027 8.994 8.994-4.027 8.994-8.994 8.994z"/></g></g></svg>