<svg id="Capa_1" enable-background="new 0 0 512 512" height="512" viewBox="0 0 512 512" width="512" xmlns="http://www.w3.org/2000/svg" xmlns:xlink="http://www.w3.org/1999/xlink"><linearGradient id="SVGID_1_" gradientUnits="userSpaceOnUse" x1="256" x2="256" y1="512" y2="0"><stop offset="0" stop-color="#ffedad"/><stop offset="1" stop-color="#ffffe5"/></linearGradient><linearGradient id="lg1"><stop offset="0" stop-color="#feba00"/><stop offset="1" stop-color="#fd5900"/></linearGradient><linearGradient id="SVGID_2_" gradientUnits="userSpaceOnUse" x1="351.038" x2="351.038" xlink:href="#lg1" y1="413.131" y2="107.905"/><linearGradient id="SVGID_3_" gradientUnits="userSpaceOnUse" x1="247.606" x2="247.606" xlink:href="#lg1" y1="413.131" y2="107.905"/><linearGradient id="SVGID_4_" gradientUnits="userSpaceOnUse" x1="151.485" x2="151.485" xlink:href="#lg1" y1="413.131" y2="107.905"/><g><circle cx="256" cy="256" fill="url(#SVGID_1_)" r="256"/><g><path d="m352.9 105.135c-3.513-3.513-9.205-3.513-12.718 0l-47.606 47.606 66.683 66.683 47.606-47.606c3.513-3.513 3.513-9.205 0-12.718z" fill="url(#SVGID_2_)"/><path d="m148.67 296.647 66.683 66.683 131.188-131.188-66.683-66.683z" fill="url(#SVGID_3_)"/><path d="m103.143 397.168c-1.335 3.338-.553 7.15 1.994 9.697 2.512 2.512 6.312 3.342 9.697 1.994l85.637-34.974-62.355-62.355z" fill="url(#SVGID_4_)"/></g></g></svg>