<svg id="Capa_1" enable-background="new 0 0 512 512" height="512" viewBox="0 0 512 512" width="512" xmlns="http://www.w3.org/2000/svg" xmlns:xlink="http://www.w3.org/1999/xlink"><linearGradient id="SVGID_1_" gradientUnits="userSpaceOnUse" x1="256" x2="256" y1="512" y2="0"><stop offset="0" stop-color="#ffe59a"/><stop offset="1" stop-color="#ffffd5"/></linearGradient><linearGradient id="SVGID_2_" gradientUnits="userSpaceOnUse" x1="256" x2="256" y1="407" y2="105"><stop offset="0" stop-color="#ffde00"/><stop offset="1" stop-color="#fd5900"/></linearGradient><g><g><circle cx="256" cy="256" fill="url(#SVGID_1_)" r="256"/></g></g><g><g><path d="m238.825 187.301c12.319 10.431 13.002 11.849 17.175 11.849 4.284 0 4.835-1.443 17.166-11.849 21.555-18.224 35.79-30.264 35.79-49.495 0-18.398-13.584-32.806-30.923-32.806-9.759 0-16.993 4.458-22.032 10.071-5.041-5.613-12.275-10.071-22.033-10.071-17.34 0-30.923 14.408-30.923 32.806-.001 19.308 15.006 31.973 35.78 49.495zm52.596 81.47c-9.072 4.132-15.506 9.984-20.146 17.789-4.233 6.887-6.393 14.668-6.393 22.735 0 33.434-27.262 62.176-62.177 62.176-34.286 0-62.177-27.891-62.177-62.176 0-34.286 27.891-62.177 62.177-62.177 3.105 0 6.04.573 9.016 1.007 6.271-9.936 12.873-19.109 26.317-29.674-10.969-4.275-22.808-6.862-35.333-6.862-54.004 0-97.706 43.702-97.706 97.706.001 54.003 43.703 97.705 97.707 97.705 53.675 0 97.706-43.5 97.706-97.706 0-14.524-3.331-28.184-8.991-40.523zm17.873-57.183c-53.675 0-97.706 43.5-97.706 97.706 0 14.524 3.33 28.186 8.991 40.524 9.072-4.132 15.506-9.984 20.146-17.789 4.233-6.887 6.393-14.668 6.393-22.735 0-33.434 27.262-62.177 62.177-62.177 34.286 0 62.177 27.891 62.177 62.177s-27.891 62.176-62.177 62.176c-3.105 0-6.04-.573-9.016-1.007-6.271 9.936-12.873 19.109-26.317 29.674 10.969 4.275 22.808 6.862 35.333 6.862 54.003.001 97.705-43.701 97.705-97.705s-43.702-97.706-97.706-97.706z" fill="url(#SVGID_2_)"/></g></g></svg>