<svg id="Capa_1" enable-background="new 0 0 512 512" height="512" viewBox="0 0 512 512" width="512" xmlns="http://www.w3.org/2000/svg" xmlns:xlink="http://www.w3.org/1999/xlink"><linearGradient id="SVGID_1_" gradientUnits="userSpaceOnUse" x1="256" x2="256" y1="512" y2="0"><stop offset="0" stop-color="#addcff"/><stop offset=".5028" stop-color="#eaf6ff"/><stop offset="1" stop-color="#eaf6ff"/></linearGradient><linearGradient id="SVGID_2_" gradientUnits="userSpaceOnUse" x1="256" x2="256" y1="90.22" y2="406.893"><stop offset="0" stop-color="#5558ff"/><stop offset="1" stop-color="#00c0ff"/></linearGradient><g><circle cx="256" cy="256" fill="url(#SVGID_1_)" r="256"/><g><g fill="url(#SVGID_2_)"><circle cx="256" cy="256" r="44.971"/><path d="m401.981 229.141-33.713-5.525c-2.415-8.379-5.762-16.442-9.995-24.093l19.517-27.334c2.556-3.575 2.152-8.476-.957-11.585l-25.437-25.437c-3.118-3.118-8.028-3.531-11.585-.957l-27.334 19.517c-7.65-4.234-15.713-7.58-24.093-9.995l-5.525-33.713c-.72-4.339-4.471-7.519-8.871-7.519h-35.977c-4.4 0-8.151 3.18-8.871 7.519l-5.525 33.713c-8.379 2.415-16.442 5.762-24.093 9.995l-27.334-19.517c-3.584-2.574-8.476-2.161-11.585.957l-25.437 25.437c-3.109 3.109-3.513 8.01-.957 11.585l19.517 27.334c-4.234 7.65-7.58 15.713-9.995 24.093l-33.713 5.525c-4.339.72-7.519 4.471-7.519 8.871v35.977c0 4.4 3.18 8.151 7.519 8.871l33.713 5.525c2.415 8.379 5.762 16.442 9.995 24.093l-19.517 27.334c-2.556 3.575-2.152 8.476.957 11.585l25.437 25.437c3.109 3.1 8.002 3.496 11.585.957l27.334-19.517c7.65 4.234 15.713 7.58 24.093 9.995l5.525 33.713c.72 4.339 4.471 7.519 8.871 7.519h35.977c4.4 0 8.151-3.18 8.871-7.519l5.525-33.713c8.379-2.415 16.442-5.762 24.093-9.995l27.334 19.517c3.557 2.538 8.467 2.143 11.585-.957l25.437-25.437c3.109-3.109 3.513-8.01.957-11.585l-19.517-27.334c4.234-7.65 7.58-15.713 9.995-24.093l33.713-5.525c4.339-.72 7.519-4.471 7.519-8.871v-35.977c0-4.401-3.18-8.151-7.519-8.871zm-145.981 89.818c-34.712 0-62.959-28.247-62.959-62.959s28.247-62.959 62.959-62.959 62.959 28.247 62.959 62.959-28.247 62.959-62.959 62.959z"/></g></g></g></svg>