<svg id="Capa_1" enable-background="new 0 0 512 512" height="512" viewBox="0 0 512 512" width="512" xmlns="http://www.w3.org/2000/svg" xmlns:xlink="http://www.w3.org/1999/xlink"><linearGradient id="SVGID_1_" gradientUnits="userSpaceOnUse" x1="256" x2="256" y1="512" y2="0"><stop offset="0" stop-color="#ffedad"/><stop offset="1" stop-color="#ffffe5"/></linearGradient><linearGradient id="lg1"><stop offset="0" stop-color="#feba00"/><stop offset="1" stop-color="#fd5900"/></linearGradient><linearGradient id="SVGID_2_" gradientUnits="userSpaceOnUse" x1="256" x2="256" xlink:href="#lg1" y1="409.441" y2="98.227"/><linearGradient id="SVGID_3_" gradientUnits="userSpaceOnUse" x1="256" x2="256" xlink:href="#lg1" y1="409.5" y2="98.286"/><g><circle cx="256" cy="256" fill="url(#SVGID_1_)" r="256"/><g><path d="m327.953 175.053c0-39.674-32.279-72.553-71.953-72.553s-71.953 32.878-71.953 72.553 32.279 71.953 71.953 71.953 71.953-32.279 71.953-71.953z" fill="url(#SVGID_2_)"/><path d="m121.088 400.506c0 4.971 4.023 8.994 8.994 8.994h251.836c4.971 0 8.994-4.023 8.994-8.994 0-74.395-60.517-135.512-134.912-135.512s-134.912 61.117-134.912 135.512z" fill="url(#SVGID_3_)"/></g></g></svg>