<svg id="Capa_1" enable-background="new 0 0 512 512" height="512" viewBox="0 0 512 512" width="512" xmlns="http://www.w3.org/2000/svg" xmlns:xlink="http://www.w3.org/1999/xlink"><linearGradient id="SVGID_1_" gradientUnits="userSpaceOnUse" x1="256" x2="256" y1="512" y2="0"><stop offset="0" stop-color="#ffc8d1"/><stop offset="1" stop-color="#fff6f7"/></linearGradient><linearGradient id="SVGID_2_" gradientUnits="userSpaceOnUse" x1="256" x2="256" y1="389.5" y2="122.5"><stop offset="0" stop-color="#ffa68d"/><stop offset="1" stop-color="#fd3a84"/></linearGradient><g><g><circle cx="256" cy="256" fill="url(#SVGID_1_)" r="256"/></g><g><g><g><g><path d="m398.118 122.5h-284.236c-4.91 0-8.882 3.981-8.882 8.9v178c0 4.919 3.973 8.9 8.882 8.9h284.235c4.91 0 8.882-3.981 8.882-8.9v-178c.001-4.919-3.972-8.9-8.881-8.9zm-84.253 105.531-88.824 53.4c-1.405.843-2.993 1.269-4.571 1.269-1.509 0-3.019-.382-4.38-1.156-2.784-1.582-4.502-4.537-4.502-7.744v-106.8c0-3.207 1.717-6.162 4.502-7.744 2.793-1.582 6.193-1.538 8.952.113l88.824 53.4c2.672 1.608 4.311 4.502 4.311 7.631s-1.64 6.023-4.312 7.631zm13.194 108.069c-14.694 0-26.647 11.977-26.647 26.7s11.953 26.7 26.647 26.7 26.647-11.977 26.647-26.7-11.953-26.7-26.647-26.7zm-213.177 17.8c-4.91 0-8.882 3.981-8.882 8.9s3.973 8.9 8.882 8.9h169.664c-.586-2.877-.899-5.853-.899-8.9 0-3.048.313-6.023.899-8.9zm284.236 0h-27.546c.586 2.877.899 5.853.899 8.9s-.313 6.023-.899 8.9h27.546c4.91 0 8.882-3.981 8.882-8.9s-3.973-8.9-8.882-8.9z" fill="url(#SVGID_2_)"/></g></g></g></g></g></svg>